<svg xmlns="http://www.w3.org/2000/svg" height="40" viewBox="0 -960 960 960" width="40"><path d="M480.265-487.18q28.12 0 48.03-20.175 19.91-20.176 19.91-48.295 0-28.119-20.176-48.029-20.175-19.911-48.294-19.911-28.12 0-48.03 20.176t-19.91 48.295q0 28.119 20.176 48.029 20.175 19.91 48.294 19.91ZM480-166q115-97.077 184.5-201.203Q734-471.328 734-550.487q0-109.808-72.51-185.622-72.51-75.814-181.613-75.814-109.104 0-181.49 75.814Q226-660.295 226-550.487q0 79.345 69.987 183.211Q365.974-263.41 480-166Zm0 68.436Q326-229.59 250.41-341.474q-75.589-111.885-75.589-209.013 0-125.923 86.82-218.885Q348.462-862.333 480-862.333t218.359 92.961q86.82 92.962 86.82 218.885 0 97.128-75.589 209.013Q634-229.59 480-97.564Zm0-457.821Z"/></svg>