<svg xmlns="http://www.w3.org/2000/svg" height="40" viewBox="0 -960 960 960" width="40"><path d="M174.461-180q-31.302 0-53.548-22.246-22.246-22.247-22.246-53.549v-448.41q0-31.302 22.246-53.549Q143.159-780 174.461-780h611.078q31.301 0 53.548 22.246 22.246 22.247 22.246 53.549v448.41q0 31.302-22.246 53.549Q816.84-180 785.539-180H174.461ZM480-467.359 149.846-682.718v426.923q0 10.77 6.923 17.693 6.923 6.923 17.692 6.923h611.078q10.769 0 17.692-6.923t6.923-17.693v-426.923L480-467.359Zm0-53.462 322.051-208H158.615l321.385 208ZM144.513-682.718v-46.103 473.026q4 10.77 11.589 17.693 7.59 6.923 18.359 6.923h-29.948v-451.539Z"/></svg>